<svg width="240" height="28" viewBox="0 0 240 28" fill="none" xmlns="http://www.w3.org/2000/svg">
<path d="M7.4504 27.4885L0.125 0.483734H4.93024L10.5586 21.2248L16.5907 0.481934L21.07 0.483734L27.1232 21.335L32.7769 0.488834L37.582 0.481934L30.2535 27.4837L24.6837 27.478L18.8322 7.31123L12.9752 27.4832L7.4504 27.4885Z" fill="#463E3A"/>
<path d="M40.896 0.497803H45.4701V27.4711H40.896V0.497803Z" fill="#463E3A"/>
<path d="M55.2495 23.24H66.3852V27.4711H50.77V0.497803H55.2495V23.24Z" fill="#463E3A"/>
<path d="M80.455 0.528902C84.2089 0.528902 87.332 1.8356 89.7926 4.4178C92.2847 7 93.5466 10.2045 93.5466 14C93.5466 17.7645 92.2847 20.9689 89.7926 23.5822C87.332 26.1645 84.2089 27.4711 80.455 27.4711H69.6978V0.497803H80.455V0.528902ZM80.455 23.2711C83.0417 23.2711 85.1553 22.4 86.7326 20.6578C88.373 18.9156 89.1932 16.6756 89.1932 14.0311C89.1932 11.3245 88.373 9.1467 86.7326 7.4045C85.1238 5.6622 83.0102 4.7911 80.455 4.7911H74.2089V23.2711H80.455Z" fill="#463E3A"/>
<path d="M117.679 19.7656C117.679 21.9756 116.891 23.8121 115.282 25.2751C113.673 26.7381 111.78 27.4851 109.446 27.4851H97.7422V0.497803H108.594C110.834 0.497803 112.726 1.2449 114.272 2.6456C115.85 4.0774 116.607 5.8517 116.607 7.9683C116.607 10.334 115.66 12.1394 113.831 13.4779C116.228 14.723 117.679 16.9641 117.679 19.7656ZM102.253 4.6689V11.7659H108.625C110.613 11.7659 112.127 10.2095 112.127 8.2174C112.127 6.2252 110.613 4.6689 108.625 4.6689H102.253ZM109.477 23.3141C111.559 23.3141 113.2 21.6643 113.2 19.5477C113.2 17.431 111.559 15.7813 109.477 15.7813H102.253V23.3452H109.477V23.3141Z" fill="#463E3A"/>
<path d="M126.417 23.2518H138.531V27.4851H121.938V0.497803H138.342V4.7311H126.417V11.7347H137.364V15.9369H126.417V23.2518Z" fill="#463E3A"/>
<path d="M158.153 27.4851L152.348 17.6489H147.048V27.4851H142.569V0.497803H153.515C155.976 0.497803 158.058 1.3382 159.73 3.0502C161.433 4.7 162.317 6.7544 162.317 9.1823C162.317 12.6063 160.14 15.7501 156.891 16.9952L163.105 27.4851H158.153ZM147.048 4.6688V13.6957H153.484C155.881 13.6957 157.774 11.7036 157.774 9.1823C157.774 6.6921 155.85 4.6688 153.484 4.6688H147.048Z" fill="#463E3A"/>
<path d="M182.096 27.4849L176.323 17.6436H171.023V27.4849H166.544V0.483643H177.49C179.951 0.483643 182.033 1.32454 183.705 3.03744C185.408 4.68804 186.292 6.74344 186.292 9.17264C186.292 12.5984 184.115 15.7439 180.866 16.9896L187.08 27.4849H182.096ZM171.023 4.65684V13.6884H177.459C179.856 13.6884 181.749 11.6952 181.749 9.17264C181.749 6.68124 179.825 4.65684 177.459 4.65684H171.023Z" fill="#463E3A"/>
<path d="M190.361 0.486816H194.841V27.4851H190.361V0.486816Z" fill="#463E3A"/>
<path d="M204.62 23.2518H216.734V27.485H200.14V0.497803H216.544V4.7311H204.62V11.7347H215.566V15.9369H204.62V23.2518Z" fill="#463E3A"/>
<path d="M219.857 21.3422L223.737 19.1022C224.841 22.1511 227.081 23.6444 230.519 23.6444C233.926 23.6444 235.598 22.2133 235.598 20.0978C235.598 18.9778 235.125 18.1689 234.242 17.6089C233.358 17.0178 231.718 16.3644 229.384 15.68C226.765 14.9022 225.472 14.4044 223.642 13.2222C221.876 11.9778 220.992 10.2044 220.992 7.7778C220.992 5.3822 221.844 3.5156 223.579 2.1156C225.283 0.684401 227.365 0 229.794 0C234.179 0 237.554 2.24 239.321 5.9422L235.535 8.0889C234.399 5.6 232.475 4.3244 229.794 4.3244C227.175 4.3244 225.503 5.6311 225.503 7.6844C225.503 9.6756 226.828 10.6089 231.024 11.8844C232.065 12.2267 232.822 12.4756 233.295 12.6622C233.8 12.8178 234.462 13.0978 235.314 13.44C236.198 13.7822 236.892 14.1867 237.302 14.5289C238.753 15.6489 240.298 17.4844 240.109 20.0667C240.109 22.4933 239.226 24.4533 237.428 25.8844C235.661 27.3156 233.327 28 230.425 28C225.125 27.9689 221.276 25.48 219.857 21.3422Z" fill="#463E3A"/>
</svg>
