<svg width="114" height="37" viewBox="0 0 114 37" fill="none" xmlns="http://www.w3.org/2000/svg">
<path d="M4.6279 9.25579C5.85283 9.24781 7.02532 8.75767 7.89149 7.89149C8.75767 7.02532 9.24781 5.85283 9.25579 4.6279C9.24781 3.40297 8.75767 2.23047 7.89149 1.3643C7.02532 0.498123 5.85283 0.00798026 4.6279 0C3.40297 0.00798026 2.23047 0.498123 1.3643 1.3643C0.498123 2.23047 0.00798026 3.40297 0 4.6279C0.00798026 5.85283 0.498123 7.02532 1.3643 7.89149C2.23047 8.75767 3.40297 9.24781 4.6279 9.25579ZM8.2815 36.0489V11.6915H0.974294V36.0489H8.2815ZM23.8839 36.0489V18.268H29.2425V11.6915H23.8839V2.92288H16.5767V11.6915H12.1924V18.268H16.5767V36.0489H23.8839ZM56.0173 26.0624C56.0173 26.0624 56.2609 24.7471 56.2609 23.6266C56.2609 16.6604 51.3407 11.2044 44.6181 11.2044C38.1893 11.2044 32.1487 16.9527 32.1487 23.8702C32.1487 30.8364 37.6047 36.536 44.6196 36.536C48.905 36.536 52.9498 34.6849 55.1892 32.2491L50.1229 27.4751C49.1486 28.4981 47.1528 29.5698 45.1555 29.5698C42.3772 29.5698 40.284 27.7674 39.8441 26.0624H56.0173ZM40.0891 21.1422C40.7209 19.4859 42.3285 18.0732 44.5709 18.0732C45.4839 18.0641 46.3736 18.3616 47.0975 18.918C47.8214 19.4744 48.3378 20.2576 48.564 21.1422H40.0891ZM68.9359 36.0489V0H61.6287V36.0489H68.9359ZM83.0647 36.0489V0H75.7574V36.0489H83.0647ZM114 36.0489V11.6915H106.693V13.4453H106.595C104.842 12.0812 102.796 11.2044 100.36 11.2044C93.2963 11.2044 88.1812 16.8553 88.1812 23.8702C88.1812 30.8851 93.2963 36.536 100.36 36.536C102.796 36.536 104.842 35.6591 106.595 34.2951H106.693V36.0489H114ZM101.091 29.4724C97.9729 29.4724 95.4884 27.1341 95.4884 23.8702C95.4884 20.6063 97.9729 18.268 101.091 18.268C104.208 18.268 106.693 20.6063 106.693 23.8702C106.693 27.1341 104.208 29.4724 101.091 29.4724Z" fill="#005DC0"/>
</svg>
