<svg width="26" height="26" viewBox="0 0 26 26" fill="none" xmlns="http://www.w3.org/2000/svg">
<path d="M4.643 25.0713H2.78585C2.29331 25.0713 1.82094 24.8757 1.47266 24.5274C1.12437 24.1791 0.928711 23.7067 0.928711 23.2142V8.35706H25.0716V23.2142C25.0716 23.7067 24.8759 24.1791 24.5276 24.5274C24.1793 24.8757 23.707 25.0713 23.2144 25.0713H21.3573" stroke="white" stroke-width="1.85714" stroke-linecap="round" stroke-linejoin="round"/>
<path d="M8.35742 20.4286L13.0003 25.0714L17.6431 20.4286" stroke="white" stroke-width="1.85714" stroke-linecap="round" stroke-linejoin="round"/>
<path d="M13 25.0714V13.9286" stroke="white" stroke-width="1.85714" stroke-linecap="round" stroke-linejoin="round"/>
<path d="M20.9673 1.85716C20.8085 1.58182 20.5816 1.35185 20.3085 1.18926C20.0353 1.02668 19.725 0.936925 19.4073 0.928589H6.593C6.27524 0.936925 5.96494 1.02668 5.6918 1.18926C5.41866 1.35185 5.19182 1.58182 5.033 1.85716L0.928711 8.35716H25.0716L20.9673 1.85716Z" stroke="white" stroke-width="1.85714" stroke-linecap="round" stroke-linejoin="round"/>
<path d="M13 0.928589V8.35716" stroke="white" stroke-width="1.85714" stroke-linecap="round" stroke-linejoin="round"/>
</svg>
