<svg width="29" height="28" viewBox="0 0 29 28" fill="none" xmlns="http://www.w3.org/2000/svg">
<path fill-rule="evenodd" clip-rule="evenodd" d="M0.987941 12.2837C0.987941 5.4996 6.48756 0 13.2717 0C18.797 0 23.4704 3.64815 25.0143 8.66714C23.2432 7.46105 21.1035 6.75604 18.7992 6.75604C12.6935 6.75604 7.7439 11.7056 7.7439 17.8114C7.7439 20.3556 8.60333 22.6991 10.0477 24.5673L0 24.5671L3.243 19.3785C1.82314 17.3748 0.987941 14.9254 0.987941 12.2837ZM9.58645 17.8114C9.58645 12.7233 13.7112 8.5986 18.7992 8.5986C23.8873 8.5986 28.012 12.7233 28.012 17.8114C28.012 19.7106 27.4362 21.4777 26.4503 22.9447L29 27.0239L18.7992 27.0242C13.7112 27.0242 9.58645 22.8994 9.58645 17.8114Z" fill="white"/>
</svg>
