<svg width="32" height="32" viewBox="0 0 32 32" fill="none" xmlns="http://www.w3.org/2000/svg">
<path fill-rule="evenodd" clip-rule="evenodd" d="M27 9C27 7.89543 26.1046 7 25 7C23.8954 7 23 7.89543 23 9V24C23 25.1046 23.8954 26 25 26C26.1046 26 27 25.1046 27 24V9ZM17 11C18.1046 11 19 11.8954 19 13L19 24C19 25.1046 18.1046 26 17 26C15.8954 26 15 25.1046 15 24L15 13C15 11.8954 15.8954 11 17 11ZM9 16C10.1046 16 11 16.8954 11 18L11 24C11 25.1046 10.1046 26 9 26C7.89543 26 7 25.1046 7 24V18C7 16.8954 7.89543 16 9 16Z" fill="#DEDEDE"/>
</svg>
