<svg width="13" height="11" viewBox="0 0 13 11" fill="none" xmlns="http://www.w3.org/2000/svg">
<path fill-rule="evenodd" clip-rule="evenodd" d="M0 1.43478C0 0.642371 0.623603 0 1.39286 0H11.6071C12.3764 0 13 0.642371 13 1.43478V1.76187L6.85601 5.9819C6.76936 6.03929 6.64358 6.08025 6.49999 6.08025C6.35641 6.08025 6.23063 6.03929 6.14398 5.9819L0 1.76187V1.43478ZM0 3.19894V9.56522C0 10.3576 0.623603 11 1.39286 11H11.6071C12.3764 11 13 10.3576 13 9.56522V3.19893L7.49673 6.97889L7.49138 6.98256C7.1992 7.17847 6.84833 7.27591 6.49999 7.27591C6.15166 7.27591 5.8008 7.17844 5.50863 6.98253L5.50324 6.97892L0 3.19894Z" fill="#463E3A"/>
</svg>
