<svg width="20" height="22" viewBox="0 0 20 22" fill="none" xmlns="http://www.w3.org/2000/svg">
<path fill-rule="evenodd" clip-rule="evenodd" d="M18.4577 6.51692C19.1355 6.13423 19.1355 5.15803 18.4577 4.77534L10.4917 0.277598C10.1866 0.105315 9.81352 0.105314 9.50838 0.277596L1.54228 4.77534C0.86449 5.15803 0.864489 6.13423 1.54228 6.51692L9.50838 11.0147C9.81352 11.187 10.1866 11.187 10.4917 11.0147L18.4577 6.51692ZM0.521737 10.5405C0.785425 10.0492 1.40457 9.85999 1.89225 10.1303L9.51541 14.3562C9.81701 14.5234 10.1835 14.5234 10.4851 14.3562L18.1082 10.1303C18.5959 9.85998 19.215 10.0492 19.4787 10.5405C19.7374 11.0225 19.5653 11.6311 19.0869 11.8963L10.4777 16.6688C10.1807 16.8334 9.81979 16.8334 9.52275 16.6688L0.913581 11.8963C0.435189 11.6311 0.263072 11.0225 0.521737 10.5405ZM0.521737 15.6071C0.785425 15.1158 1.40457 14.9265 1.89225 15.1969L9.51541 19.4227C9.81701 19.5899 10.1835 19.5899 10.4851 19.4227L18.1082 15.1969C18.5959 14.9265 19.215 15.1158 19.4787 15.607C19.7374 16.089 19.5653 16.6977 19.0869 16.9629L10.4777 21.7353C10.1807 21.9 9.81979 21.9 9.52275 21.7353L0.913581 16.9629C0.435189 16.6977 0.263072 16.089 0.521737 15.6071Z" fill="#FF6721"/>
</svg>
