<svg width="123" height="38" viewBox="0 0 123 38" fill="none" xmlns="http://www.w3.org/2000/svg">
<path d="M115.678 37.2702H123V14.6448H115.678V22.9545H108.767V14.6448H101.444V37.2702H108.767V28.7137H115.678V37.2702ZM29.0428 12.1766C28.3846 11.5184 28.3846 10.5311 29.0428 9.87291C29.701 9.21472 30.7706 9.21472 31.3465 9.87291C31.9224 10.5311 32.0047 11.5184 31.3465 12.1766C30.6883 12.8348 29.6187 12.8348 29.0428 12.1766ZM31.0997 22.8722C33.897 18.3472 34.8843 11.1893 34.8843 11.1893L33.8147 10.6957C33.6502 10.6134 33.6502 10.5311 33.7324 10.3666L34.5552 9.37927C34.0615 8.39198 32.2515 6.74649 29.6187 6.74649C28.0555 6.74649 26.6569 7.15786 25.4227 7.9806C25.4227 7.9806 23.6127 9.21472 21.0622 11.4361C18.0181 14.0689 13.9866 18.0181 10.2843 23.1191C10.202 23.2836 10.2843 23.4482 10.4488 23.4482H15.2207C18.3472 23.4482 22.3786 22.8722 26.5746 18.4294C26.6569 18.3472 26.7391 18.3472 26.8214 18.3472C26.9037 18.4294 26.9037 18.5117 26.9037 18.594C26.2455 20.2395 24.6 23.4482 21.5559 25.4228H25.5873C28.3023 25.4228 30.2769 24.1886 31.0997 22.8722ZM26.986 28.3024L30.1124 37.188H38.998C37.188 31.6756 35.2134 26.5746 33.3211 21.885C31.8401 25.0937 30.4415 26.6569 26.986 28.3024ZM0 37.2702H8.96789L12.012 27.8087H3.29097C2.2214 30.606 1.15184 33.7325 0 37.2702ZM12.0943 16.9485L16.6194 13.2462C17.6067 10.6134 18.594 7.9806 19.5813 5.7592C20.0749 6.91104 20.5686 8.14515 21.0622 9.37927C23.5304 7.32241 25.0936 6.0883 27.1505 5.51238C25.9164 2.79733 25.0114 0.822743 24.6 0H14.5625C13.7398 1.81003 10.5311 8.47425 6.74649 17.4421H10.3666C11.107 17.4421 11.6829 17.3599 12.0943 16.9485ZM67.5472 34.7197L68.0408 37.188H73.9645V14.6448H66.6421V30.3592C65.9839 31.0997 64.7498 31.9224 63.598 31.9224C61.5411 31.9224 60.4716 30.7706 60.4716 28.6314V14.6448H53.1492V30.3592C52.491 31.0997 51.0923 31.9224 49.8582 31.9224C47.9659 31.9224 46.8963 30.7706 46.8963 28.6314V14.6448H39.5739V29.6187C39.5739 35.0488 41.9599 37.7639 46.8963 37.7639C50.4341 37.7639 52.5732 36.4475 54.2187 34.7197C55.3706 36.7766 57.4274 37.7639 60.4716 37.7639C64.0094 37.6816 65.9839 36.4475 67.5472 34.7197ZM90.8308 30.2769C90.1726 31.0174 89.103 31.8401 87.293 31.8401C85.3184 31.8401 84.2488 30.0301 84.2488 26.4923C84.2488 22.1318 85.4007 19.9926 87.7866 19.9926C89.1853 19.9926 89.8435 20.0749 90.8308 20.3217V30.2769ZM84.7425 37.6816H84.9893C88.2803 37.6816 90.5017 36.5298 91.7358 34.7197L92.1472 37.188H98.1532V15.5498C95.7672 14.8094 92.9699 14.1512 87.8689 14.1512C80.5465 14.1512 76.5973 18.594 76.5973 26.8214C76.5973 34.3906 79.3946 37.6816 84.7425 37.6816Z" fill="#DC000F"/>
</svg>
