<svg width="215" height="42" viewBox="0 0 215 42" fill="none" xmlns="http://www.w3.org/2000/svg">
<path d="M0 0H21.083L21.0889 8.38595H11.2029V16.2581H20.1263V24.3015H11.1143V41.8116H0V0Z" fill="#E42E24"/>
<path d="M23.4036 0V41.8058H33.0829L33.0474 15.5672L36.9865 41.8235H43.7956L47.4689 15.5672L47.463 41.7881H56.912V0H42.7976L40.3763 18.5436L37.577 0H23.4036Z" fill="#E42E24"/>
<path d="M78.1319 20.9068L70.3362 13.1348H59.7944L67.5901 20.9068H78.1319ZM59.7944 28.6728H70.3421L78.1378 20.9068H67.596L59.8003 28.6728H59.7944Z" fill="#004494"/>
<path d="M78.1318 20.9068H67.59L59.7944 13.1348H70.3362L78.1318 20.9068Z" fill="url(#paint0_linear_95_1233)"/>
<path d="M85.2126 9.04817H80.8188V32.7592H96.2856V28.9442H85.2126V9.04817ZM107.43 8.88281C99.4924 8.88281 95.5238 12.8986 95.5238 20.9362C95.8781 28.9264 99.8467 32.9245 107.43 32.9245C115.012 32.9245 119.152 28.9264 119.152 20.9362C119.152 12.9459 115.249 8.88281 107.43 8.88281ZM107.43 29.1095C102.534 29.1095 100.083 26.3516 100.083 20.8358C100.083 15.3199 102.534 12.6978 107.43 12.6978C112.325 12.6978 114.593 15.4085 114.593 20.8358C114.593 26.263 112.207 29.1095 107.43 29.1095ZM120.871 20.57C120.871 28.8024 125.052 32.9245 133.42 32.9245C136.296 32.9245 138.688 32.5052 140.595 31.6666V21.8161H136.202V28.7138C135.186 28.9796 134.282 29.1154 133.485 29.1154C128.111 29.1154 125.43 26.2689 125.43 20.5759C125.43 15.3258 128.276 12.7037 133.969 12.7037C136.343 12.7037 138.558 13.1467 140.601 14.0266V10.0462C138.558 9.27258 136.237 8.88872 133.639 8.88872C125.129 8.88872 120.871 12.7864 120.871 20.5759V20.57ZM143.153 32.7592H147.546V9.04817H143.153V32.7592ZM161.419 18.8279H157.373C155.448 18.8279 154.491 17.942 154.491 16.1762C154.491 13.8553 156.481 12.6978 160.462 12.6978C163.113 12.6978 165.629 13.1408 168.003 14.0207V10.0403C165.629 9.26668 163.113 8.88281 160.462 8.88281C153.552 8.88281 150.098 11.3159 150.098 16.1762C150.098 20.5995 152.525 22.8082 157.379 22.8082H161.424C163.657 22.8082 164.773 23.6941 164.773 25.4599C164.773 27.893 162.954 29.1095 159.316 29.1095C156.322 29.1095 153.635 28.6666 151.255 27.7808V31.7611C153.629 32.5348 156.316 32.9245 159.316 32.9245C165.883 32.9245 169.167 30.4383 169.167 25.4599C169.167 21.0425 166.586 18.8279 161.424 18.8279H161.419ZM169.444 12.8632H176.242V32.7592H180.635V12.8632H187.433V9.04817H169.444V12.8632ZM188.325 32.7592H192.718V9.04817H188.325V32.7592ZM208.368 12.6978C210.748 12.6978 212.957 13.1408 215 14.0207V10.0403C212.957 9.26668 210.636 8.88281 208.037 8.88281C199.527 8.88281 195.27 12.7805 195.27 20.57C195.27 28.8024 199.527 32.9245 208.037 32.9245C210.636 32.9245 212.957 32.5348 215 31.7611V27.7808C212.957 28.6666 210.742 29.1095 208.368 29.1095C202.675 29.1095 199.829 26.263 199.829 20.57C199.829 15.3199 202.675 12.6978 208.368 12.6978Z" fill="url(#paint1_radial_95_1233)"/>
<defs>
<linearGradient id="paint0_linear_95_1233" x1="78.1318" y1="20.9068" x2="59.7944" y2="13.1348" gradientUnits="userSpaceOnUse">
<stop stop-color="#008BD0"/>
<stop offset="1" stop-color="#004494"/>
</linearGradient>
<radialGradient id="paint1_radial_95_1233" cx="0" cy="0" r="1" gradientUnits="userSpaceOnUse" gradientTransform="translate(147.334 19.8141) scale(66.5916 66.5916)">
<stop stop-color="#008BD0"/>
<stop offset="1" stop-color="#004494"/>
</radialGradient>
</defs>
</svg>
