<svg width="141" height="32" viewBox="0 0 141 32" fill="none" xmlns="http://www.w3.org/2000/svg">
<path d="M16.4491 24.1348C20.1007 23.6718 23.0505 20.7219 23.5164 17.0674C23.6791 15.8201 23.5531 14.5521 23.148 13.3612C22.7429 12.1703 22.0697 11.0884 21.1802 10.1989C20.2908 9.30943 19.2088 8.63619 18.018 8.23113C16.8271 7.82607 15.559 7.70001 14.3117 7.86268C10.6572 8.32859 7.70734 11.2784 7.24434 14.93C7.08167 16.1774 7.20773 17.4454 7.61279 18.6363C8.01785 19.8272 8.69109 20.9091 9.58055 21.7986C10.47 22.688 11.5519 23.3613 12.7428 23.7663C13.9337 24.1714 15.2018 24.2974 16.4491 24.1348ZM16.947 0.699229C20.4627 1.06933 23.7447 2.6351 26.2444 5.13477C28.744 7.63443 30.3098 10.9165 30.6799 14.4321C31.6438 24.1581 23.5368 32.265 13.8079 31.3011C10.2928 30.9304 7.01147 29.3644 4.51239 26.8648C2.01331 24.3651 0.447949 21.0835 0.0779709 17.5683C-0.885892 7.8423 7.22104 -0.264634 16.947 0.699229ZM38.9324 1.30783H61.4449C62.301 1.30783 62.7844 2.28625 62.269 2.96765L46.6928 23.5174H58.8969C61.1217 23.5174 62.8718 25.5413 62.4117 27.8475C62.0739 29.5394 60.4869 30.6925 58.763 30.6925H34.314C33.4667 30.6925 32.9862 29.7229 33.4958 29.0502L49.0836 8.48293H39.0664C37.3425 8.48293 35.7555 7.32688 35.4177 5.63793C34.9547 3.33165 36.7077 1.30783 38.9324 1.30783ZM136.632 1.38937C138.956 0.900155 141 2.65899 141 4.89538V29.6559C141 30.5207 140.001 31.0012 139.326 30.4654L119.906 15.0582V27.1108C119.906 29.3472 117.861 31.106 115.538 30.6168C113.872 30.2674 112.731 28.7153 112.731 27.0147V2.34158C112.731 1.47673 113.729 0.99625 114.405 1.53205L133.828 16.9393V4.99148C133.828 3.29088 134.972 1.74171 136.635 1.38937H136.632ZM86.0656 0.620605C97.9552 0.620605 107.594 7.50451 107.594 15.9958C107.594 24.4871 97.9552 31.371 86.0656 31.371C74.176 31.371 64.5374 24.4871 64.5374 15.9958C64.5374 7.50451 74.176 0.620605 86.0656 0.620605ZM86.0656 7.7957C77.851 7.7957 71.7125 12.1258 71.7125 15.9958C71.7125 19.8658 77.851 24.1959 86.0656 24.1959C94.2803 24.1959 100.419 19.8687 100.419 15.9958C100.419 12.1229 94.2803 7.7957 86.0656 7.7957Z" fill="#005BFF"/>
</svg>
