<svg width="279" height="42" viewBox="0 0 279 42" fill="none" xmlns="http://www.w3.org/2000/svg">
<path fill-rule="evenodd" clip-rule="evenodd" d="M13.2912 0.753906H0.824219L15.1492 20.8509L0.824219 41.0169H13.2912L27.6212 20.8509L13.2912 0.753906Z" fill="#F78F1E"/>
<path d="M29.1323 9.76099H35.1173L39.7193 17.258L44.4813 9.76099H50.1303L42.6133 20.962L50.7873 33.231H44.6423L39.5213 25.11L34.2943 33.231H28.5073L36.6973 20.931L29.1323 9.76099Z" fill="#463E3A"/>
<path d="M57.499 13.6379L56.58 18.8699L56.649 18.9339C57.29 18.2989 57.968 17.8389 58.689 17.5669C59.41 17.2879 60.232 17.1559 61.15 17.1559C62.293 17.1559 63.301 17.3639 64.177 17.7799C65.052 18.1969 65.795 18.7519 66.398 19.4509C67.001 20.1499 67.461 20.9719 67.78 21.9289C68.101 22.8799 68.261 23.8879 68.261 24.9609C68.261 26.1519 68.026 27.2459 67.567 28.2559C67.109 29.2759 66.483 30.1609 65.709 30.9039C64.924 31.6509 64.022 32.2169 62.997 32.6219C61.962 33.0289 60.872 33.2209 59.708 33.1989C58.587 33.1989 57.519 33.0499 56.5 32.7519C55.485 32.4579 54.583 32.0029 53.793 31.3949C53.002 30.7759 52.373 30.0189 51.903 29.1099C51.433 28.2029 51.187 27.1449 51.166 25.9389H55.833C55.94 26.9909 56.334 27.8289 57.018 28.4469C57.691 29.0729 58.556 29.3879 59.608 29.3879C60.222 29.3879 60.777 29.2639 61.263 29.0139C61.759 28.7619 62.176 28.4369 62.517 28.0309C62.853 27.6259 63.115 27.1559 63.302 26.6219C63.494 26.0829 63.585 25.5319 63.585 24.9669C63.585 24.3799 63.494 23.8199 63.317 23.2969C63.147 22.7779 62.88 22.3199 62.533 21.9249C62.18 21.5289 61.769 21.2199 61.278 21.0069C60.798 20.7869 60.243 20.6859 59.607 20.6859C58.774 20.6859 58.096 20.8249 57.573 21.1239C57.039 21.4229 56.548 21.8829 56.089 22.5229H51.887L54.156 9.79395H67.013V13.6389H57.499" fill="#463E3A"/>
<path d="M83.27 9.76099C84.23 9.76099 85.144 9.87399 86.014 10.12C86.873 10.359 87.631 10.722 88.278 11.224C88.924 11.716 89.437 12.35 89.821 13.125C90.2 13.904 90.398 14.823 90.398 15.88C90.398 17.369 90.014 18.667 89.245 19.755C88.475 20.851 87.343 21.549 85.828 21.859V21.929C86.597 22.04 87.232 22.239 87.739 22.533C88.241 22.831 88.657 23.205 88.978 23.665C89.293 24.135 89.522 24.658 89.666 25.267C89.81 25.865 89.901 26.516 89.949 27.215C89.97 27.61 89.992 28.091 90.013 28.662C90.034 29.234 90.076 29.805 90.146 30.388C90.204 30.969 90.316 31.519 90.461 32.026C90.6 32.549 90.792 32.944 91.032 33.233H88.554C88.421 33.009 88.319 32.742 88.239 32.427C88.164 32.112 88.111 31.78 88.079 31.44C88.047 31.103 88.015 30.767 87.994 30.436C87.972 30.104 87.951 29.827 87.924 29.581C87.881 28.754 87.817 27.926 87.716 27.104C87.614 26.287 87.406 25.556 87.086 24.909C86.771 24.258 86.312 23.746 85.709 23.35C85.11 22.949 84.283 22.778 83.232 22.821H74.774V33.232H72.521V9.76199H83.27M83.099 20.899C83.777 20.899 84.428 20.797 85.037 20.589C85.651 20.381 86.19 20.076 86.649 19.686C87.108 19.296 87.472 18.81 87.749 18.26C88.016 17.706 88.15 17.065 88.15 16.339C88.15 14.893 87.738 13.755 86.906 12.922C86.078 12.089 84.813 11.677 83.099 11.677H74.775V20.898L83.099 20.899Z" fill="#463E3A"/>
<path d="M109.981 9.76099V11.678H96.0204V20.129H109.095V22.052H96.0204V31.309H110.146V33.231H93.7764V9.76099H109.981Z" fill="#463E3A"/>
<path d="M129.97 9.76099V11.678H121.786V33.231H119.548V11.678H111.396V9.76099H129.97Z" fill="#463E3A"/>
<path d="M138.245 9.76099L147.439 33.231H145.047L142.185 25.927H131.506L128.682 33.231H126.317L135.746 9.76099H138.245ZM141.433 24.007L136.896 11.978L132.202 24.007H141.433Z" fill="#463E3A"/>
<path d="M151.977 9.75098H149.734V33.231H151.977V9.75098Z" fill="#463E3A"/>
<path d="M159.111 9.76099V31.309H172.255V33.231H156.867V9.76099H159.111Z" fill="#463E3A"/>
<path d="M185.505 34.1199C183.667 34.1199 182.023 33.7929 180.582 33.1119C179.162 32.4429 177.96 31.5409 177.005 30.3849C176.053 29.2449 175.337 27.8969 174.855 26.3709C174.37 24.8459 174.132 23.2159 174.132 21.4999C174.132 19.7479 174.394 18.1149 174.908 16.5739C175.433 15.0329 176.183 13.6849 177.156 12.5489C178.133 11.3959 179.331 10.4889 180.734 9.83392C182.144 9.17692 183.747 8.84692 185.526 8.84692C186.876 8.84692 188.128 9.04092 189.28 9.42392C190.428 9.81092 191.443 10.3669 192.323 11.0799C193.196 11.8029 193.919 12.6639 194.473 13.6629C195.04 14.6679 195.417 15.8019 195.626 17.0339L195.701 17.4739H195.254H194.275L194.219 17.1609C194.034 16.1139 193.693 15.1749 193.204 14.3179C192.708 13.4669 192.098 12.7469 191.352 12.1469C190.609 11.5419 189.751 11.0779 188.77 10.7489C187.799 10.4209 186.714 10.2609 185.524 10.2609C183.927 10.2609 182.523 10.5549 181.3 11.1409C180.062 11.7329 179.024 12.5339 178.175 13.5409C177.32 14.5549 176.666 15.7389 176.22 17.1079C175.773 18.4759 175.551 19.9449 175.551 21.5009C175.551 23.0669 175.768 24.5399 176.197 25.9149C176.616 27.2789 177.248 28.4729 178.092 29.4779C178.924 30.4779 179.977 31.2779 181.228 31.8749C182.473 32.4559 183.928 32.7579 185.611 32.7579C186.867 32.7579 188.028 32.5419 189.111 32.1099C190.21 31.6769 191.168 31.0749 191.967 30.3139C192.773 29.5549 193.4 28.6449 193.867 27.5829C194.325 26.5209 194.555 25.3769 194.555 24.1339V23.2939H185.459V22.9179V22.2649V21.8879H195.98V33.5979H195.603H194.554L194.565 29.1199C193.877 30.4419 192.906 31.5319 191.669 32.3779C189.953 33.5439 187.895 34.1199 185.521 34.1199C185.519 34.1199 185.513 34.1199 185.505 34.1199Z" fill="#463E3A"/>
<path d="M198.267 33.6068H197.891V9.39282H207.892C210.401 9.39582 212.293 9.87482 213.546 10.9458C214.794 12.0078 215.408 13.6498 215.462 15.7768C215.466 15.8518 215.466 15.9258 215.466 16.0008C215.466 17.5528 215.013 18.8848 214.112 19.9498C213.429 20.7598 212.53 21.3758 211.438 21.7988C211.874 21.9258 212.265 22.0818 212.612 22.2698C213.277 22.6358 213.804 23.1258 214.165 23.7398C214.518 24.3338 214.757 25.0308 214.875 25.8228C214.979 26.5918 215.033 27.4398 215.033 28.4058C215.033 28.7098 215.054 29.1258 215.071 29.6168C215.092 30.1048 215.128 30.5868 215.167 31.0598C215.216 31.5348 215.266 31.9608 215.328 32.3508C215.385 32.7198 215.476 32.9548 215.525 33.0118L215.961 33.6098H215.219H214.26L214.159 33.3978C214.015 33.1038 213.922 32.7538 213.846 32.3158C213.782 31.9058 213.728 31.4558 213.699 30.9858C213.67 30.5218 213.638 30.0578 213.63 29.5798C213.619 29.1008 213.61 28.6818 213.61 28.2998C213.61 27.3548 213.544 26.5148 213.402 25.7838C213.269 25.0848 213.008 24.5168 212.623 24.0548C212.235 23.6038 211.667 23.2378 210.919 22.9818C210.159 22.7288 209.113 22.5898 207.783 22.5898H199.319V33.6088H198.94H198.267V33.6068ZM207.723 21.1928C208.57 21.1928 209.369 21.0848 210.145 20.8678C210.896 20.6678 211.563 20.3428 212.13 19.8888C212.704 19.4428 213.156 18.8898 213.511 18.1918C213.85 17.5228 214.026 16.7068 214.026 15.7228C214.001 14.1278 213.534 12.9598 212.634 12.0978C211.757 11.2678 210.243 10.8098 208.059 10.8118L199.319 10.8098V21.1938L207.723 21.1928Z" fill="#463E3A"/>
<path d="M222.967 33.1109C221.574 32.4389 220.397 31.5259 219.456 30.3659C218.52 29.2059 217.804 27.8619 217.318 26.3259C216.838 24.8039 216.587 23.1879 216.587 21.4869C216.587 19.7829 216.838 18.1629 217.318 16.6429C217.803 15.1049 218.52 13.7629 219.456 12.6049C220.396 11.4419 221.574 10.5209 222.964 9.84889C224.373 9.15889 225.982 8.81689 227.777 8.81689C229.58 8.81689 231.188 9.15889 232.589 9.84889C233.982 10.5209 235.163 11.4429 236.105 12.6049C237.043 13.7629 237.759 15.1049 238.245 16.6399C238.726 18.1629 238.968 19.7829 238.968 21.4869C238.968 23.1859 238.727 24.7999 238.245 26.3259C237.76 27.8619 237.043 29.2059 236.105 30.3659C235.164 31.5259 233.982 32.4389 232.589 33.1109C231.186 33.7909 229.58 34.1219 227.777 34.1219C225.984 34.1219 224.376 33.7909 222.967 33.1109ZM220.67 29.6129C221.5 30.5999 222.511 31.3739 223.71 31.9359C224.898 32.4879 226.248 32.7659 227.776 32.7659C229.311 32.7659 230.662 32.4889 231.854 31.9389C233.052 31.3739 234.06 30.5999 234.891 29.6159C235.711 28.6289 236.362 27.4449 236.818 26.0669C237.276 24.6709 237.517 23.1639 237.538 21.5159C237.517 19.8689 237.276 18.3549 236.818 16.9679C236.362 15.5889 235.712 14.3989 234.891 13.4089C234.06 12.4279 233.052 11.6589 231.854 11.0939C230.662 10.5369 229.311 10.2589 227.776 10.2589C226.248 10.2589 224.898 10.5369 223.712 11.0939C222.508 11.6589 221.5 12.4229 220.67 13.4089C219.843 14.3989 219.198 15.5889 218.736 16.9679C218.284 18.3519 218.045 19.8689 218.024 21.5069C218.045 23.1629 218.284 24.6699 218.736 26.0649V26.0639C219.198 27.4449 219.843 28.6289 220.67 29.6129Z" fill="#463E3A"/>
<path d="M258.587 9.38184H258.965V24.4768C258.965 27.6828 258.216 30.1238 256.654 31.7308C255.102 33.3368 252.849 34.1218 249.986 34.1218C249.98 34.1218 249.974 34.1218 249.971 34.1218C247.097 34.1248 244.845 33.3398 243.291 31.7308C241.723 30.1238 240.98 27.6828 240.98 24.4768V9.38184H241.359H242.405V24.4768C242.408 27.2508 243.038 29.2908 244.245 30.6648C245.445 32.0218 247.319 32.7318 249.971 32.7358C252.621 32.7318 254.492 32.0218 255.693 30.6648C256.897 29.2888 257.538 27.2498 257.538 24.4768V9.38184H257.915H258.587Z" fill="#463E3A"/>
<path d="M261.456 33.6068H261.077V9.40283H270.973C273.285 9.40283 275.136 9.95783 276.479 11.1098C277.818 12.2688 278.491 13.9908 278.488 16.1898C278.488 17.2668 278.287 18.2358 277.894 19.0918C277.498 19.9398 276.948 20.6568 276.241 21.2338C275.544 21.8018 274.711 22.2308 273.763 22.5138C272.814 22.8048 271.766 22.9408 270.643 22.9408H262.504V33.6078H262.127H261.456V33.6068ZM270.965 21.5128C271.848 21.5128 272.664 21.3968 273.412 21.1558C274.161 20.9188 274.795 20.5738 275.34 20.1128C275.875 19.6598 276.292 19.1018 276.602 18.4508C276.905 17.8048 277.06 17.0518 277.06 16.1778C277.056 14.3868 276.557 13.0818 275.581 12.1828C274.62 11.2908 273.101 10.8118 270.966 10.8118L262.503 10.8098V21.5138L270.965 21.5128Z" fill="#463E3A"/>
</svg>
