<svg width="15" height="17" viewBox="0 0 15 17" fill="none" xmlns="http://www.w3.org/2000/svg">
<path fill-rule="evenodd" clip-rule="evenodd" d="M13.4119 7.06425L7.64442 2.01547L1.57057 7.07923C1.16442 7.41784 0.560677 7.36308 0.222072 6.95693C-0.116534 6.55078 -0.0617799 5.94704 0.344369 5.60843L6.62764 0.37008C7.23067 -0.132663 8.1098 -0.122071 8.70054 0.395053L14.6732 5.62342C15.0711 5.97171 15.1113 6.5766 14.763 6.97447C14.4147 7.37234 13.8098 7.41254 13.4119 7.06425ZM6.86969 4.20833C7.30705 3.86028 7.92679 3.86028 8.36415 4.20833L14.6382 9.20123V14.8304C14.6382 15.4932 14.1009 16.0304 13.4382 16.0304H1.79565C1.13291 16.0304 0.595652 15.4932 0.595652 14.8304V9.20123L6.86969 4.20833ZM6.34028 11.0637H8.89347V16.0304H6.34028V11.0637Z" fill="#786962"/>
</svg>
